<svg aria-hidden="true" style="position:absolute;width:0;height:0;overflow:hidden" xmlns="http://www.w3.org/2000/svg"><defs><symbol id="icon-css3" viewBox="0 0 23 32"><path fill="#4353ad" style="fill:var(--color1, #4353ad)" d="m11.309 32-9.248-2.57L0 6.289h22.646l-2.063 23.137L11.309 32z"/><path fill="#485fb5" style="fill:var(--color2, #485fb5)" d="M18.817 27.953 20.58 8.181h-9.257v21.852l7.494-2.08z"/><path fill="#ededed" style="fill:var(--color3, #ededed)" d="m11.323 24.135-.012.003-3.157-.853-.202-2.263H5.106l.397 4.456 5.807 1.614.013-.004v-2.953zM4.214 11.019l.258 2.838h6.851v-2.838H4.214zm.511 5.745.254 2.838h6.344v-2.838H4.725z"/><path fill="#100f0d" style="fill:var(--color4, #100f0d)" d="M13.571 0h3.434v1.25h-1.998v.25h1.998v2.875h-3.434V3.062h1.998v-.25h-1.998V0zM9.45 0h3.434v1.25h-1.998v.25h1.998v2.875H9.45V3.062h1.998v-.25H9.45V0zM5.33 0h3.434v1.437H6.766v1.438h1.998v1.437H5.33V-.001z"/><path fill="#fff" style="fill:var(--color5, #fff)" d="m17.903 16.764.512-5.744h-7.102v2.838h3.995l-.258 2.906h-3.737v2.838h3.491l-.329 3.681-3.162.854v2.953l5.812-1.613.043-.479.666-7.472.069-.762z"/></symbol><symbol id="icon-html5" viewBox="0 0 23 32"><path fill="#e53d20" style="fill:var(--color6, #e53d20)" d="M2.051 29.43 0 6.289h22.535l-2.053 23.137L11.254 32l-9.203-2.57z"/><path fill="#f15123" style="fill:var(--color7, #f15123)" d="m11.268 30.033 7.457-2.08 1.754-19.772h-9.211v21.852z"/><path fill="#ededed" style="fill:var(--color3, #ededed)" d="M11.268 16.764H7.535l-.258-2.906h3.991V11.02H4.194l.068.761.693 7.821h6.313v-2.838zM11.268 24.134l-.012.003-3.142-.854-.201-2.264H5.081l.395 4.456 5.779 1.614.013-.004v-2.953z"/><path fill="#100f0d" style="fill:var(--color4, #100f0d)" d="M2.097 0h1.434v1.425h1.311V0h1.434v4.315H4.842V2.87H3.531v1.445H2.097V0zM8.161 1.431H6.899V0h3.959v1.431H9.595v2.884H8.161V1.431zM11.486 0h1.495l.92 1.516L14.82 0h1.496v4.315h-1.428V2.176l-.986 1.534h-.025l-.987-1.534v2.139h-1.403V0zM17.028 0h1.434v2.889h2.016v1.426h-3.45V0z"/><path fill="#fff" style="fill:var(--color5, #fff)" d="M11.258 16.764v2.838h3.474l-.327 3.681-3.146.854v2.953l5.784-1.613.042-.479.663-7.472.069-.762h-6.558zM11.258 11.019v2.838h6.814l.057-.638.129-1.439.067-.761h-7.067z"/></symbol><symbol id="icon-jqr" viewBox="0 0 140 32"><path fill="#1a1918" style="fill:var(--color8, #1a1918)" d="m133.512 2.341 5.852.032s-10.879 14.742-11.767 15.943c-.289.389-.727.809-.95 1.329-.561 1.308-1.138 4.176-1.138 4.176l-5.354.027s.833-2.989.799-4.582c-.03-1.391-.74-2.78-1.139-4.176-.402-1.412-.949-4.176-.949-4.176h5.504l.759 3.037 8.383-11.61z"/><path fill="#1a1918" style="fill:var(--color8, #1a1918)" d="M122.431 5.45c1.08.651 1.743 4.242 1.743 4.242s-5.65.083-8.726.083h-2.657l-3.227 14.045h-4.934s3.07-15.264 3.796-18.031c.235-.896 1.609-.742 3.93-.742h3.707c2.394 0 5.192-.305 6.368.402zM99.458 12.29s.154-.902-.522-1.946c-.577-.89-1.111-1.097-2.628-1.144-4.288-.135-4.205 3.043-4.205 3.043l7.355.047zm4.65-3.638c.629 2.266-.569 7.592-.569 7.592s-6.255-.104-9.68 0c-1.066.032-2.34-.116-2.658.38-.446.695.163 1.763.68 2.215.594.52 1.751.579 2.167.632 2.781.353 8.6.091 8.6.091l-1.008 4.464s-8.224.412-12.337-.569c-.812-.193-1.573-.584-2.088-1.139-.14-.152-.262-.358-.394-.537-.106-.143-.416-.611-.554-.982-.939-2.503.11-7.3 1.139-9.869.119-.298.269-.675.427-.996.197-.4.364-.852.522-1.091.106-.165.238-.271.348-.427a6.32 6.32 0 0 1 .412-.522c.38-.441.81-.752 1.328-1.139 1.714-1.283 4.816-2.28 8.541-1.898 1.402.144 3.521.645 4.555 2.088.277.385.413 1.15.569 1.708zM81.474 5.03l4.785-.028s-2.667 12.65-4.025 18.819H76.73c-3.847 0-7.273.476-8.731-2.278-1.414-2.674-.065-7.072.569-10.059.448-2.114 1.391-6.436 1.391-6.436l4.957-.046s-1.401 6.728-1.984 10.088c-.209 1.203-.639 2.337-.19 3.227.427.847 1.025.907 2.847.949.577.013 2.468 0 2.468 0l3.416-14.235zM59.078 14.14c.501-1.78 1.232-3.711 1.139-5.314-.1-1.716-1.539-3.278-2.467-3.606-2.796-.987-5.413.393-6.453 1.518-1.346 1.458-1.801 3.16-2.278 5.504-.355 1.74-.645 3.578 0 4.935 1.142 2.399 4.705 1.875 8.541 1.898.569-1.526 1.04-3.24 1.518-4.935zm6.643-7.022c.547 3.974-1.551 8.361-2.995 12.176 1.473.133 2.764-.021 2.857.089.097.143-.987 4.553-1.365 4.565-1.169.031-5.043.063-6.658.063-5.271 0-10.202.344-12.716-2.278-1.021-1.065-1.727-2.891-1.898-4.176-.285-2.145.072-4.506.569-6.453.45-1.758 1.027-3.417 1.898-4.935C47.628 2.303 51.481-.567 57.94.096c1.253.129 3.052.678 4.176 1.328.078.046.349.262.412.3 1.518.966 2.902 3.272 3.194 5.394zM42.401 5.053c-.319 1.452-.638 3.098-.974 4.533h-5.314c.412-1.59.727-3.172 1.139-4.555 1.701 0 3.282.023 5.149.023zM35.923 10.914h5.124c-.67 3.709-1.996 9.691-3.037 13.855-.651 2.606-1.086 4.508-2.847 5.884-.158.123-.248.065-.379.19-.325.309-1.826.668-2.657.759-1.352.146-2.879.019-4.54-.015.435-1.589.926-3.496 1.313-4.92 4.048.49 4.151-3.337 4.935-7.023.454-2.13 1.828-7.877 2.088-8.731z"/><path fill="#21609b" style="fill:var(--color9, #21609b)" d="m23.965 20.594-.11.285c-1.872 3.644-5.187 5.88-9.917 5.979-2.211.046-4.318-.522-5.694-1.139-2.97-1.334-5.468-3.809-6.833-6.453-1.957-3.79-2.31-9.063 1.759-13.001.063 0-.494.854-.431.854l-.112.364c-2.932 9.181 6.102 17.048 14.884 16.148 2.111-.216 4.802-1.372 6.453-3.037z"/><path fill="#21609b" style="fill:var(--color9, #21609b)" d="M18.651 16.798c2.209.015 4.517-1.017 5.884-2.467-1.196 3.035-4.657 4.986-9.3 4.365-3.887-.52-7.59-4.432-7.972-8.351-.279-2.853.715-4.555 2.354-6.62-.569 1.08-.782 1.913-.835 2.444-.622 6.17 4.929 10.597 9.87 10.629z"/><path fill="#21609b" style="fill:var(--color9, #21609b)" d="M24.313 9.134c-.344.788-2.321 2.276-3.194 2.462-3.458.737-5.673-.903-6.833-2.769-.173-.279-.491-1.04-.549-1.234-.45-1.53-.243-3.843 1.099-5.041-.404 1.139-.463 2.462-.251 3.321.129.52.522 1.428.915 1.999.715 1.04 1.169 1.293 2.088 1.845.414.249.858.448 1.05.503.871.256 2.71.932 5.675-1.086z"/></symbol><symbol id="icon-js" viewBox="0 0 32 32"><path fill="#f7df1e" style="fill:var(--color10, #f7df1e)" d="M0 0h32v32H0V0z"/><path style="fill:var(--color11, #000)" d="m8.414 26.742 2.449-1.482c.472.838.902 1.546 1.933 1.546.988 0 1.611-.387 1.611-1.89V14.691h3.007v10.267c0 3.115-1.826 4.532-4.489 4.532-2.406 0-3.802-1.246-4.511-2.749zM19.048 26.419l2.449-1.418c.645 1.053 1.482 1.826 2.964 1.826 1.246 0 2.041-.623 2.041-1.482 0-1.031-.816-1.396-2.191-1.998l-.752-.322c-2.17-.923-3.609-2.083-3.609-4.532 0-2.255 1.718-3.974 4.404-3.974 1.912 0 3.287.666 4.274 2.406l-2.341 1.504c-.516-.924-1.074-1.289-1.933-1.289-.881 0-1.439.558-1.439 1.289 0 .902.559 1.267 1.847 1.826l.752.322c2.556 1.096 3.995 2.212 3.995 4.726 0 2.707-2.127 4.189-4.983 4.189-2.792 0-4.597-1.332-5.477-3.072z"/></symbol><symbol id="icon-mong" viewBox="0 0 114 32"><path fill="#8e714e" style="fill:var(--color12, #8e714e)" d="M105.936 13.208c-.102.02-.205.243-.205.364-.021.809-.041 2.953-.041 4.409 0 .041.061.121.123.121.307.02 1.046.041 1.682.041.882 0 1.394-.121 1.681-.243.738-.364 1.087-1.153 1.087-2.023 0-1.962-1.394-2.71-3.466-2.71a3.33 3.33 0 0 0-.861.041zm5.291 9.041c0-2.002-1.497-3.115-4.204-3.115-.123 0-.984-.02-1.189.02-.062.02-.144.061-.144.122 0 1.436-.021 3.722.041 4.611.041.384.328.93.676 1.092.369.202 1.21.243 1.784.243 1.62 0 3.035-.89 3.035-2.973zm-9.474-10.154c.205 0 .82.061 2.399.061 1.497 0 2.687-.04 4.142-.04 1.784 0 4.245.627 4.245 3.256 0 1.295-.923 2.326-2.133 2.832-.061.02-.061.061 0 .081 1.723.425 3.241 1.477 3.241 3.459 0 1.942-1.23 3.175-3.014 3.944-1.087.465-2.441.627-3.814.627-1.046 0-3.856-.121-5.414-.081-.164-.061.144-.789.287-.91.37-.02.656-.04 1.046-.162.554-.142.615-.303.698-1.133.041-.708.041-3.216.041-4.996 0-2.447.021-4.106 0-4.915-.02-.627-.246-.829-.697-.951-.348-.06-.923-.142-1.394-.202-.102-.101.246-.789.369-.87zM89.92 24.676c.493.384 1.456.546 2.317.546 1.107 0 2.215-.202 3.281-1.153 1.087-.971 1.846-2.468 1.846-4.854 0-2.286-.882-4.146-2.687-5.239-1.025-.627-2.338-.89-3.856-.89-.451 0-.882.02-1.148.142-.061.04-.205.223-.205.324-.041.405-.041 3.519-.041 5.34 0 1.881 0 4.51.041 4.814 0 .304.144.769.451.971zm-4.655-12.581c.39 0 1.887.061 2.605.061 1.291 0 2.214-.061 4.655-.061 2.051 0 3.773.546 5.003 1.578 1.497 1.274 2.276 3.034 2.276 5.178 0 3.054-1.415 4.814-2.829 5.825-1.415 1.032-3.261 1.638-5.886 1.638-1.394 0-3.794-.041-5.783-.061h-.021c-.102-.182.164-.89.328-.91.533-.061.677-.081.944-.182.43-.162.513-.384.575-1.133.061-1.396.041-3.074.041-4.976 0-1.355.021-4.005-.021-4.854-.061-.708-.369-.89-.984-1.011a13.248 13.248 0 0 0-1.292-.202c-.082-.142.287-.769.39-.89z"/><path fill="#442d22" style="fill:var(--color13, #442d22)" d="M60.452 25.465c-.513-.061-.882-.142-1.333-.344-.061-.041-.164-.243-.164-.324-.041-.708-.041-2.731-.041-4.086 0-1.092-.184-2.043-.656-2.71-.554-.769-1.353-1.214-2.379-1.214-.902 0-2.112.607-3.117 1.456-.021.02-.185.162-.164-.061 0-.223.041-.667.062-.971.021-.283-.144-.425-.144-.425-.656.324-2.502.748-3.179.809-.492.101-.615.566-.102.728h.021a4.59 4.59 0 0 1 1.21.526c.205.162.185.384.185.566.021 1.517.021 3.843-.041 5.117-.02.506-.164.688-.533.768l.041-.02c-.287.061-.513.121-.861.162-.123.121-.123.769 0 .91.226 0 1.415-.061 2.4-.061 1.353 0 2.051.061 2.399.061.144-.162.185-.769.102-.91-.39-.02-.677-.061-.943-.142-.369-.081-.472-.263-.492-.688-.041-1.072-.041-3.337-.041-4.874 0-.425.123-.627.246-.748.472-.404 1.23-.688 1.907-.688.656 0 1.087.202 1.415.465.451.364.595.89.656 1.274.102.87.062 2.589.062 4.086 0 .809-.062 1.011-.369 1.112-.144.061-.513.142-.943.182-.144.142-.102.769 0 .91.595 0 1.292-.061 2.317-.061 1.271 0 2.092.061 2.42.061.102-.121.144-.708.061-.87zm5.68-7.727c-1.087 0-1.764.829-1.764 2.124 0 1.315.595 2.832 2.276 2.832.287 0 .82-.121 1.066-.404.39-.364.656-1.092.656-1.861 0-1.679-.841-2.69-2.235-2.69zm-.143 8.94c-.41 0-.697.121-.882.223-.862.546-1.251 1.072-1.251 1.699 0 .586.225 1.052.718 1.456.595.506 1.415.748 2.461.748 2.092 0 3.015-1.113 3.015-2.205 0-.769-.39-1.274-1.189-1.557-.574-.243-1.62-.364-2.871-.364zm.143 5.259c-1.251 0-2.153-.263-2.933-.849-.759-.566-1.087-1.416-1.087-2.002 0-.162.041-.607.41-1.011.225-.243.718-.708 1.887-1.497.041-.02.061-.04.061-.081s-.041-.081-.082-.101c-.964-.364-1.251-.951-1.333-1.274v-.041c-.02-.121-.061-.243.123-.364.144-.101.349-.222.574-.364.349-.202.718-.425.943-.607.041-.04.041-.081.041-.121s-.041-.081-.082-.101c-1.435-.465-2.153-1.517-2.153-3.095 0-1.032.472-1.962 1.312-2.548.574-.445 2.01-.991 2.953-.991h.062c.964.02 1.497.222 2.256.485.41.142.8.202 1.333.202.8 0 1.148-.243 1.435-.526.021.04.062.142.082.404s-.062.647-.267.93c-.164.222-.533.384-.902.384h-.103a4.773 4.773 0 0 1-.533-.081l-.082.04c-.02.041 0 .081.021.142l.021.04c.041.182.123.728.123.87 0 1.659-.677 2.386-1.394 2.933a4.756 4.756 0 0 1-2.399.91c-.021 0-.102 0-.287.02-.103 0-.246.02-.267.02h-.02c-.164.04-.574.243-.574.586 0 .303.185.667 1.066.728.185.02.369.02.574.041 1.169.081 2.625.182 3.302.404.944.344 1.538 1.173 1.538 2.164 0 1.497-1.087 2.892-2.891 3.762-.882.384-1.764.587-2.727.587zM77.821 17.84c-.431 0-.821.101-1.107.303-.8.485-1.21 1.456-1.21 2.872 0 2.65 1.354 4.511 3.281 4.511.575 0 1.025-.162 1.415-.485.594-.486.902-1.456.902-2.812 0-2.629-1.333-4.389-3.281-4.389zm.369 8.656c-3.486 0-4.737-2.528-4.737-4.895 0-1.659.676-2.933 2.029-3.843.964-.586 2.113-.91 3.138-.91 2.665 0 4.532 1.881 4.532 4.591 0 1.84-.738 3.297-2.153 4.187-.677.445-1.845.87-2.81.87zM41.647 17.84c-.431 0-.82.101-1.108.303-.8.485-1.21 1.456-1.21 2.872 0 2.65 1.353 4.511 3.281 4.511.574 0 1.025-.162 1.415-.485.595-.486.902-1.456.902-2.812 0-2.629-1.313-4.389-3.281-4.389zm.369 8.656c-3.486 0-4.737-2.528-4.737-4.895 0-1.659.677-2.933 2.03-3.843.964-.586 2.112-.91 3.138-.91 2.666 0 4.532 1.881 4.532 4.591 0 1.84-.738 3.297-2.153 4.187-.656.445-1.825.87-2.809.87zm-23.44-.202c-.041-.061-.082-.243-.062-.465 0-.162.041-.263.062-.303.43-.061.656-.122.902-.182.41-.101.574-.324.595-.829.062-1.214.062-3.52.041-5.117v-.04c0-.182 0-.405-.226-.566a4.671 4.671 0 0 0-1.23-.526c-.185-.061-.308-.162-.287-.283 0-.121.123-.263.39-.303.677-.061 2.44-.485 3.137-.789.041.04.103.162.103.324l-.021.222a8.09 8.09 0 0 0-.041.748c0 .081.082.142.164.142.041 0 .082-.02.123-.04 1.312-1.011 2.502-1.375 3.117-1.375 1.005 0 1.784.465 2.379 1.436.041.061.082.081.144.081.041 0 .102-.02.123-.061 1.21-.91 2.42-1.456 3.22-1.456 1.907 0 3.035 1.396 3.035 3.762 0 .667 0 1.537-.021 2.326 0 .708-.02 1.355-.02 1.82 0 .101.144.425.369.485.287.142.677.202 1.189.283h.02c.041.142-.041.667-.123.769-.123 0-.308 0-.513-.02-.39-.02-.943-.04-1.559-.04-1.271 0-1.928.02-2.564.061-.041-.162-.061-.647 0-.769.369-.061.554-.121.779-.182.41-.121.513-.303.533-.829 0-.384.082-3.661-.041-4.45-.123-.809-.738-1.76-2.092-1.76-.513 0-1.312.202-2.092.789a.357.357 0 0 0-.082.202v.02c.082.425.082.91.082 1.659v1.315c0 .91-.021 1.76 0 2.407 0 .445.267.546.492.627.123.02.205.04.308.061.185.04.369.081.656.142.041.081.041.344-.021.566a.391.391 0 0 1-.082.202c-.697-.02-1.415-.041-2.461-.041-.308 0-.841.02-1.292.02-.369 0-.718.02-.923.02-.021-.041-.062-.182-.062-.405 0-.182.041-.324.082-.364.102-.02.184-.04.287-.04.246-.04.451-.081.656-.121.349-.101.472-.283.492-.728.062-1.011.123-3.904-.02-4.632-.246-1.173-.923-1.76-2.01-1.76-.636 0-1.436.303-2.092.789-.102.081-.185.283-.185.465v1.193c0 1.456 0 3.277.02 4.065.021.243.102.526.574.627.102.02.267.061.472.081l.369.061c.041.122.021.607-.062.769-.205 0-.451-.02-.738-.02a32.055 32.055 0 0 0-3.24 0c-.287-.04-.513-.04-.759-.04z"/><path fill="#fff" style="fill:var(--color5, #fff)" d="m7.79 31.148-.841-.283s.103-4.227-1.435-4.531c-1.025-1.173.164-49.756 3.855-.162 0 0-1.271.627-1.497 1.699-.246 1.052-.082 3.277-.082 3.277z"/><path fill="#a6a385" style="fill:var(--color14, #a6a385)" d="m7.79 31.148-.841-.283s.103-4.227-1.435-4.531c-1.025-1.173.164-49.756 3.855-.162 0 0-1.271.627-1.497 1.699-.246 1.052-.082 3.277-.082 3.277z"/><path fill="#fff" style="fill:var(--color5, #fff)" d="M8.241 27.063s7.362-4.773 5.639-14.704C12.219 5.138 8.302 2.772 7.871 1.862c-.472-.647-.923-1.78-.923-1.78l.308 20.084c0 .02-.636 6.149.984 6.897z"/><path fill="#499d4a" style="fill:var(--color15, #499d4a)" d="M8.241 27.063s7.362-4.773 5.639-14.704C12.219 5.138 8.302 2.772 7.871 1.862c-.472-.647-.923-1.78-.923-1.78l.308 20.084c0 .02-.636 6.149.984 6.897z"/><path fill="#fff" style="fill:var(--color5, #fff)" d="M6.518 27.325S-.393 22.673.017 14.481C.407 6.289 5.287 2.264 6.23 1.536c.615-.647.636-.89.677-1.537.431.91.349 13.612.41 15.109.185 5.764-.328 11.124-.8 12.217z"/><path fill="#58aa50" style="fill:var(--color16, #58aa50)" d="M6.518 27.325S-.393 22.673.017 14.481C.407 6.289 5.287 2.264 6.23 1.536c.615-.647.636-.89.677-1.537.431.91.349 13.612.41 15.109.185 5.764-.328 11.124-.8 12.217z"/></symbol><symbol id="icon-nodejs" viewBox="0 0 51 32"><path fill="#539e43" style="fill:var(--color17, #539e43)" d="M25.288 31.908a.992.992 0 0 1-.485-.13l-1.537-.93c-.231-.13-.116-.177-.046-.2.312-.106.37-.13.693-.318.035-.024.081-.012.116.012l1.179.718c.046.024.104.024.139 0l4.611-2.721c.046-.024.069-.071.069-.13v-5.43c0-.059-.023-.106-.069-.13l-4.611-2.709c-.046-.024-.104-.024-.139 0l-4.611 2.709c-.046.024-.069.082-.069.13v5.43c0 .047.023.106.069.13l1.26.742c.682.353 1.11-.059 1.11-.471v-5.359c0-.071.058-.141.139-.141h.589c.069 0 .139.059.139.141v5.359c0 .93-.497 1.472-1.364 1.472-.266 0-.474 0-1.063-.294l-1.214-.707a.998.998 0 0 1-.485-.86v-5.43a1 1 0 0 1 .485-.86l4.611-2.721c.289-.165.682-.165.971 0l4.611 2.721c.3.177.485.506.485.86v5.43a1 1 0 0 1-.485.86l-4.611 2.721c-.15.071-.324.106-.485.106zm1.421-3.734c-2.023 0-2.439-.942-2.439-1.743 0-.071.058-.141.139-.141h.601c.069 0 .127.047.127.118.092.624.358.93 1.583.93.971 0 1.387-.224 1.387-.754 0-.306-.116-.53-1.63-.683-1.26-.13-2.046-.412-2.046-1.437 0-.954.786-1.519 2.103-1.519 1.479 0 2.207.518 2.3 1.649a.194.194 0 0 1-.035.106c-.023.024-.058.047-.092.047h-.601a.135.135 0 0 1-.127-.106c-.139-.648-.497-.86-1.445-.86-1.063 0-1.19.377-1.19.66 0 .342.15.448 1.583.636 1.422.188 2.092.459 2.092 1.472-.012 1.037-.844 1.625-2.312 1.625z"/><path fill="#333" style="fill:var(--color18, #333)" d="M10.98 10.671a.602.602 0 0 0-.3-.518l-4.9-2.874a.688.688 0 0 0-.266-.082h-.046a.545.545 0 0 0-.266.082l-4.9 2.874a.6.6 0 0 0-.3.518l.012 7.727c0 .106.058.212.15.259a.258.258 0 0 0 .289 0l2.913-1.696a.6.6 0 0 0 .3-.518v-3.616c0-.212.116-.412.3-.518l1.237-.73c.092-.059.196-.082.3-.082s.208.024.289.082l1.237.73a.6.6 0 0 1 .3.518v3.616c0 .212.116.412.3.518l2.912 1.696a.276.276 0 0 0 .3 0 .294.294 0 0 0 .15-.259l-.012-7.727zM34.534.035a.314.314 0 0 0-.289 0 .309.309 0 0 0-.15.259V7.95a.227.227 0 0 1-.104.188.22.22 0 0 1-.208 0l-1.225-.718a.585.585 0 0 0-.589 0l-4.9 2.886a.6.6 0 0 0-.3.518v5.76c0 .212.116.412.3.518l4.9 2.886a.585.585 0 0 0 .589 0l4.9-2.886a.6.6 0 0 0 .3-.518V2.226a.607.607 0 0 0-.3-.53L34.534.035zm-.451 14.653c0 .059-.023.106-.069.13l-1.676.989a.165.165 0 0 1-.15 0l-1.676-.989c-.046-.024-.069-.082-.069-.13v-1.979c0-.059.023-.106.069-.13l1.676-.989a.165.165 0 0 1 .15 0l1.676.989c.046.024.069.082.069.13v1.979zM50.842 12.662a.59.59 0 0 0 .289-.518v-1.402a.616.616 0 0 0-.289-.518L45.976 7.35a.585.585 0 0 0-.589 0l-4.9 2.886a.6.6 0 0 0-.3.518v5.76c0 .212.116.412.3.518l4.866 2.827a.565.565 0 0 0 .578 0l2.947-1.673c.092-.047.15-.153.15-.259s-.058-.212-.15-.259l-4.924-2.886a.309.309 0 0 1-.15-.259v-1.802c0-.106.058-.212.15-.259l1.537-.895a.276.276 0 0 1 .3 0l1.537.895c.093.059.15.153.15.259v1.413c0 .106.058.212.15.259a.276.276 0 0 0 .3 0l2.912-1.731z"/><path fill="#539e43" style="fill:var(--color17, #539e43)" d="M45.606 12.391a.102.102 0 0 1 .116 0l.936.554a.124.124 0 0 1 .058.106v1.107a.124.124 0 0 1-.058.106l-.936.554a.102.102 0 0 1-.116 0l-.936-.554a.124.124 0 0 1-.058-.106v-1.107c0-.047.023-.082.058-.106l.936-.554z"/><path fill="#418B3D" d="M19.174 7.373a.585.585 0 0 0-.589 0l-4.866 2.862a.59.59 0 0 0-.289.518v5.736c0 .212.116.412.289.518l4.866 2.862a.585.585 0 0 0 .589 0l4.866-2.862a.59.59 0 0 0 .289-.518v-5.736a.616.616 0 0 0-.289-.518l-4.866-2.862z"/><path d="m24.051 10.235-4.889-2.862a.777.777 0 0 0-.15-.059l-5.478 9.564a.596.596 0 0 0 .162.141l4.889 2.862c.139.082.3.106.451.059l5.143-9.588c-.035-.047-.081-.082-.127-.118z"/><path d="M24.063 17.008a.665.665 0 0 0 .289-.377l-5.363-9.329a.572.572 0 0 0-.416.071l-4.854 2.85 5.236 9.729a.794.794 0 0 0 .22-.071l4.889-2.874z"/></symbol><symbol id="icon-react" viewBox="0 0 35 32"><path fill="#fff" style="fill:var(--color5, #fff)" d="M.104 15.965c0 2.673 2.598 5.169 6.694 6.576-.818 4.137-.147 7.472 2.096 8.772 2.305 1.336 5.738.411 8.997-2.451 3.177 2.747 6.387 3.828 8.627 2.525 2.303-1.339 3.003-4.9 2.162-9.167 4.266-1.417 6.652-3.545 6.652-6.254 0-2.611-2.603-4.87-6.643-6.268.905-4.443.138-7.697-2.197-9.05-2.251-1.304-5.499-.167-8.723 2.651C14.416.307 11.2-.606 8.867.751c-2.249 1.308-2.891 4.704-2.07 8.918C2.84 11.055.103 13.366.103 15.966z"/><path fill="#53c1de" style="fill:var(--color19, #53c1de)" d="M27.834 11.085a20.917 20.917 0 0 0-1.007-.319c.057-.233.109-.464.156-.69.762-3.719.264-6.714-1.438-7.701-1.632-.946-4.301.04-6.997 2.398-.259.227-.519.467-.779.718a20.53 20.53 0 0 0-.518-.481c-2.825-2.521-5.657-3.583-7.358-2.594-1.631.949-2.113 3.765-1.427 7.289.066.34.144.688.231 1.041-.401.114-.788.236-1.158.366-3.312 1.16-5.428 2.979-5.428 4.865 0 1.948 2.271 3.902 5.721 5.087.272.093.555.182.846.266-.094.382-.177.757-.246 1.122-.654 3.463-.143 6.213 1.483 7.155 1.68.973 4.499-.027 7.244-2.438.217-.191.435-.393.653-.605.283.274.565.532.846.775 2.659 2.299 5.285 3.228 6.91 2.282 1.678-.976 2.223-3.93 1.515-7.524a17.409 17.409 0 0 0-.188-.84c.198-.059.392-.12.582-.183 3.587-1.194 5.92-3.124 5.92-5.099 0-1.893-2.184-3.724-5.563-4.893z"/><path fill="#fff" style="fill:var(--color5, #fff)" d="M27.056 19.802a16.31 16.31 0 0 1-.526.165 31.577 31.577 0 0 0-1.584-3.983 31.648 31.648 0 0 0 1.523-3.924c.32.093.631.191.93.295 2.895 1.002 4.661 2.482 4.661 3.623 0 1.215-1.907 2.793-5.004 3.824zm-1.285 2.559c.313 1.589.358 3.026.15 4.149-.186 1.009-.561 1.682-1.024 1.952-.986.573-3.095-.172-5.368-2.138a18.897 18.897 0 0 1-.787-.721 31.36 31.36 0 0 0 2.622-3.346 31.093 31.093 0 0 0 4.237-.656c.064.259.121.512.169.76zm-12.994 6.001c-.963.342-1.731.352-2.194.083-.987-.572-1.397-2.78-.838-5.741.064-.339.14-.688.228-1.044 1.282.285 2.7.49 4.216.613a32.63 32.63 0 0 0 2.686 3.334c-.2.194-.398.378-.596.552-1.214 1.066-2.43 1.823-3.502 2.203zm-4.513-8.567c-1.526-.524-2.785-1.205-3.649-1.948-.776-.668-1.168-1.331-1.168-1.869 0-1.145 1.698-2.605 4.531-3.597.344-.12.704-.234 1.077-.34a32.09 32.09 0 0 0 1.525 3.97 32.707 32.707 0 0 0-1.544 4.027 16.75 16.75 0 0 1-.772-.243zM9.777 9.447c-.588-3.019-.197-5.297.785-5.869 1.047-.609 3.361.259 5.801 2.436.156.139.313.285.469.435a32.14 32.14 0 0 0-2.665 3.314c-1.471.137-2.88.357-4.175.652a19.402 19.402 0 0 1-.215-.969zm13.495 3.349a43.356 43.356 0 0 0-.951-1.572c.998.127 1.955.295 2.853.501-.27.868-.606 1.776-1.001 2.707a48.06 48.06 0 0 0-.9-1.636zM17.769 7.41c.616.671 1.234 1.42 1.841 2.233a39.216 39.216 0 0 0-3.698-.001 29.563 29.563 0 0 1 1.857-2.232zm-5.539 5.395a39.699 39.699 0 0 0-.883 1.626 29.928 29.928 0 0 1-.994-2.72 29.838 29.838 0 0 1 2.836-.489 38.462 38.462 0 0 0-.959 1.584zm.988 8.026a28.366 28.366 0 0 1-2.883-.466c.276-.896.617-1.828 1.014-2.775a40.294 40.294 0 0 0 1.869 3.242zm4.588 3.81a30.084 30.084 0 0 1-1.882-2.264 45.767 45.767 0 0 0 3.72-.006 28.244 28.244 0 0 1-1.837 2.27zm6.379-7.1c.418.958.771 1.884 1.051 2.765-.907.208-1.887.375-2.918.5a46.35 46.35 0 0 0 1.867-3.266zm-2.065.995a43.955 43.955 0 0 1-1.501 2.433c-.928.067-1.887.101-2.865.101-.974 0-1.921-.03-2.833-.09a38.427 38.427 0 0 1-1.529-2.437 37.417 37.417 0 0 1-1.335-2.533 37.836 37.836 0 0 1 2.848-4.961 37.553 37.553 0 0 1 5.703 0 40.527 40.527 0 0 1 1.507 2.419c.491.851.941 1.695 1.349 2.522a40.429 40.429 0 0 1-1.344 2.545zm2.757-14.997c1.048.607 1.455 3.055.797 6.266-.042.205-.089.414-.141.625a31.835 31.835 0 0 0-4.183-.664 31.565 31.565 0 0 0-2.645-3.317c.24-.232.48-.454.72-.663 2.31-2.02 4.469-2.817 5.452-2.247z"/><path fill="#53c1de" style="fill:var(--color19, #53c1de)" d="M17.754 13.171c1.543 0 2.794 1.257 2.794 2.807s-1.251 2.807-2.794 2.807-2.794-1.257-2.794-2.807a2.8 2.8 0 0 1 2.794-2.807z"/></symbol><symbol id="icon-web" viewBox="0 0 33 32"><path d="M0 0v27.361h10.699v1.956H8.744v1.953h15.847v-1.953h-1.955v-1.956h10.699V0H.002zm20.681 29.317h-8.029v-1.956h8.029v1.956zm10.699-3.91H1.953v-3.911H31.38v3.911zm0-5.864H1.953V1.953H31.38v17.59z"/><path d="m13.278 7.218-1.381-1.381-4.911 4.911 4.911 4.911 1.381-1.381-3.53-3.53 3.53-3.53zM21.437 5.837l-1.381 1.381 3.53 3.53-3.53 3.53 1.381 1.381 4.911-4.911-4.911-4.911zM16.843 4.859l-2.267 11.399 1.916.381L18.759 5.24l-1.916-.381z"/></symbol><symbol id="icon-design" viewBox="0 0 38 32"><path d="M35.638 0H2.458A2.46 2.46 0 0 0 0 2.458v20.891a2.46 2.46 0 0 0 2.458 2.458h12.665l-.819 2.458h-2.015a.614.614 0 0 0-.614.614v1.229h-5.53a.614.614 0 0 0 0 1.228H33.18a.614.614 0 0 0 0-1.228h-6.759v-1.229a.614.614 0 0 0-.614-.614h-2.015l-.82-2.458h12.665a2.46 2.46 0 0 0 2.458-2.458V2.458A2.46 2.46 0 0 0 35.637 0zM25.192 29.493v.615H12.903v-.615h12.289zm-9.593-1.229.819-2.458h5.258l.82 2.458h-6.897zm21.267-4.915a1.228 1.228 0 0 1-1.228 1.228H2.458a1.228 1.228 0 0 1-1.228-1.228V22.12h35.637v1.229zm-26.447-7.988-.23 5.53h-.716l-.23-5.53h1.177zm-1.092-1.229.41-2.458h.187l.41 2.458H9.326zm.504-3.687c-.666 0-1.229-.844-1.229-1.843 0-.631.644-1.547 1.227-2.193.526.584 1.23 1.517 1.23 2.193 0 .999-.563 1.843-1.229 1.843zm6.687-1.228.072.145v.469h-2.458v-.469l.072-.145h2.313zm-1.699-1.229.542-1.084.542 1.084h-1.085zm1.771 3.072v9.754c0 .026.002.051.005.077h-2.468a.65.65 0 0 0 .005-.077V11.06h2.458zm5.53-2.458h1.843v1.229h-.614a.614.614 0 0 0 0 1.228h.614v1.229H22.12a.614.614 0 0 0 0 1.228h1.843v1.229h-.614a.614.614 0 0 0 0 1.229h.614v1.229H22.12a.614.614 0 0 0 0 1.229h1.843v2.458h-4.301V6.143h4.301v1.229H22.12a.614.614 0 0 0 0 1.228zm7.373 7.373v4.839a.5.5 0 0 0 .006.077H27.03a.65.65 0 0 0 .005-.077v-4.839h2.458zm-2.458-1.228v-.469l1.229-2.458 1.229 2.458v.469h-2.458zm9.831 6.144h-6.15a.65.65 0 0 0 .005-.077v-6.682a.627.627 0 0 0-.064-.275l-1.843-3.687a.617.617 0 0 0-1.1 0l-1.843 3.687a.624.624 0 0 0-.064.275v6.682c0 .026.002.051.005.077h-.62V5.53a.614.614 0 0 0-.615-.614h-5.53a.614.614 0 0 0-.614.614v15.361h-.62a.65.65 0 0 0 .005-.077V9.216a.624.624 0 0 0-.064-.275l-1.843-3.687a.617.617 0 0 0-1.1 0l-1.843 3.687a.639.639 0 0 0-.065.275v11.598c0 .026.002.051.005.077h-1.49l.255-6.119v-.06a.48.48 0 0 0-.008-.065v-.002l-.568-3.411c.714-.538 1.191-1.517 1.191-2.632 0-1.579-1.83-3.328-2.039-3.522a.613.613 0 0 0-.838 0c-.209.194-2.039 1.943-2.039 3.522 0 1.115.478 2.094 1.191 2.632l-.568 3.411v.002c-.004.021-.006.043-.008.065v.06l.255 6.119H1.227V2.458A1.228 1.228 0 0 1 2.455 1.23h33.18a1.23 1.23 0 0 1 1.228 1.228v18.433z"/><path d="M6.759 22.734H3.072a.614.614 0 0 0 0 1.229h3.687a.614.614 0 0 0 0-1.229zM9.217 22.734h-.614a.614.614 0 0 0 0 1.229h.614a.614.614 0 0 0 0-1.229zM15.361 11.674a.618.618 0 0 0-.615.614v6.759a.614.614 0 0 0 1.229 0v-6.759a.614.614 0 0 0-.614-.614zM28.264 16.59a.618.618 0 0 0-.615.614v1.843a.614.614 0 0 0 1.229 0v-1.843a.614.614 0 0 0-.614-.614zM3.072 3.687h4.916a.614.614 0 0 0 0-1.228H3.072a.614.614 0 0 0 0 1.228zM3.072 5.53h1.229a.614.614 0 0 0 0-1.228H3.072a.614.614 0 0 0 0 1.228zM32.565 19.662h2.458a.618.618 0 0 0 .615-.615.614.614 0 0 0-.615-.614h-2.458a.614.614 0 0 0 0 1.229zM34.409 17.819h.614a.614.614 0 0 0 0-1.228h-.614a.618.618 0 0 0-.615.614.614.614 0 0 0 .615.614z"/></symbol><symbol id="icon-mob" viewBox="0 0 18 32"><path d="M15 0H2a2.002 2.002 0 0 0-2 2v27a2.002 2.002 0 0 0 2 2h13a2.004 2.004 0 0 0 2-2V2a2.002 2.002 0 0 0-2-2zm-4.16 1-.281 1H6.391l-.25-1h4.699zM16 29a1.003 1.003 0 0 1-1 1H2a1.003 1.003 0 0 1-1-1V2a1.003 1.003 0 0 1 1-1h3.109l.406 1.621A.5.5 0 0 0 6 3h4.937c.109 0 .215-.036.302-.101s.15-.158.179-.263L11.878 1h3.121a1.003 1.003 0 0 1 1 1v27z"/><path d="M6 28H2.5a.498.498 0 0 0-.5.5.5.5 0 0 0 .5.5H6a.498.498 0 0 0 .5-.5.5.5 0 0 0-.5-.5zM8 28h-.5a.498.498 0 0 0-.5.5.5.5 0 0 0 .5.5H8a.498.498 0 0 0 .5-.5.5.5 0 0 0-.5-.5zM10.257 12.571a.502.502 0 0 0-.686.171l-3 5a.501.501 0 0 0 .858.513l3-5a.502.502 0 0 0-.171-.686zM11.89 12.687a.488.488 0 0 0-.335-.185.5.5 0 0 0-.446.809l1.75 2.188-1.75 2.188a.496.496 0 0 0 .078.703.496.496 0 0 0 .703-.078l2-2.5a.502.502 0 0 0 0-.625l-2-2.5zM5.11 18.312a.502.502 0 0 0 .888-.257.5.5 0 0 0-.107-.368l-1.75-2.188 1.75-2.188a.494.494 0 0 0 .048-.553.502.502 0 0 0-.679-.197.488.488 0 0 0-.149.126l-2 2.5a.5.5 0 0 0 0 .625l2 2.5z"/></symbol><symbol id="icon-courses" viewBox="0 0 33 32"><path d="M3.906 19.939 1.42 19.39C.691 20.86 0 22.511 0 24.414c0 1.866.663 3.497 1.42 5.024l8.411-1.855v3.659l2.93-1.465 2.93 1.465v-3.657l8.345 1.854c.723-1.459 1.421-3.114 1.421-5.025 0-.329-.024-.657-.065-.977h7.943V0H3.908v19.939zm-1.372 7.253c-.254-.672-.581-1.739-.581-2.778s.327-2.106.581-2.778l7.296 1.61v2.337l-7.296 1.609zm11.203.889-.977-.488-.977.488v-4.644h1.953v4.644zm9.185-.89-7.232-1.607v-2.339l7.232-1.607c.254.672.581 1.738.581 2.777s-.327 2.105-.581 2.777zM31.38 1.953v19.531h-6.442c-.32-.979-.578-1.442-.903-2.095l-9.429 2.095h-3.693l-5.054-1.115V1.953H31.38z"/><path d="M11.784 3.906h13.672v1.953H11.784V3.906zM7.813 11.719h21.615v1.953H7.813v-1.953zM11.784 15.625h13.672v1.953H11.784v-1.953zM13.737 7.813h1.953v1.953h-1.953V7.813zM17.643 7.813h1.953v1.953h-1.953V7.813zM21.549 7.813h1.953v1.953h-1.953V7.813z"/></symbol><symbol id="icon-des" viewBox="0 0 32 32"><path d="m25.939 24.506-.832.555L27.066 28H4.935l2.333-3.5h12.703v-1H7a.5.5 0 0 0-.416.222l-3 4.5a.498.498 0 0 0-.084.277v1.5a.997.997 0 0 0 1 1h23a.997.997 0 0 0 1-1v-1.5a.496.496 0 0 0-.084-.277l-2.477-3.716zM4.5 30v-1h23v1h-23zM26 1H6a1.504 1.504 0 0 0-1.5 1.5v13A1.504 1.504 0 0 0 6 17h7v2h-2a.498.498 0 0 0-.5.5v2a.498.498 0 0 0 .5.5h10a.498.498 0 0 0 .5-.5v-2a.498.498 0 0 0-.5-.5h-2v-2h7a1.504 1.504 0 0 0 1.5-1.5v-13A1.504 1.504 0 0 0 26 1zm-5.5 19v1h-9v-1h9zM14 19v-2h4v2h-4zm12.5-3.5a.498.498 0 0 1-.5.5H6a.498.498 0 0 1-.5-.5V14h21v1.5zm0-2.5h-21V2.5A.498.498 0 0 1 6 2h20a.498.498 0 0 1 .5.5V13z"/><path d="M23.5 14.5h1v1h-1v-1zM11.5 12h2a.498.498 0 0 0 .5-.5V11h4v.5a.498.498 0 0 0 .5.5h2a.498.498 0 0 0 .5-.5v-2a.498.498 0 0 0-.5-.5H20V6h.5a.498.498 0 0 0 .5-.5v-2a.498.498 0 0 0-.5-.5h-2a.498.498 0 0 0-.5.5V4h-4v-.5a.498.498 0 0 0-.5-.5h-2a.498.498 0 0 0-.5.5v2a.498.498 0 0 0 .5.5h.5v3h-.5a.498.498 0 0 0-.5.5v2a.498.498 0 0 0 .5.5zm8.5-1h-1v-1h1v1zm-1-7h1v1h-1V4zm-7 0h1v1h-1V4zm1 2h.5a.498.498 0 0 0 .5-.5V5h4v.5a.498.498 0 0 0 .5.5h.5v3h-.5a.498.498 0 0 0-.5.5v.5h-4v-.5a.498.498 0 0 0-.5-.5H13V6zm-1 4h1v1h-1v-1zM11.5 26h7v1h-7v-1zM29.935 18.42l-1.415-1.415a.494.494 0 0 0-.355-.145.477.477 0 0 0-.35.145l-6.72 6.72a.487.487 0 0 0-.12.195l-.355 1.06a.503.503 0 0 0 .12.51l-.705.71.705.705.71-.705a.497.497 0 0 0 .509.12l1.06-.355a.494.494 0 0 0 .195-.12l6.72-6.72a.5.5 0 0 0 0-.704zm-7.34 6.635-.655.215-.275-.27.22-.655 4.865-4.865.71.705-4.865 4.87zm5.57-5.575-.705-.705.705-.71.71.71-.71.705z"/></symbol><symbol id="icon-dev" viewBox="0 0 32 32"><path d="M28.8 4.8H14.4v1.067h14.4V4.8zM23.467 6.933H14.4V8h9.067V6.933zM23.467 9.067H14.4v1.067h9.067V9.067zM28.8 2.667H18.667v1.067H28.8V2.667zM17.6 2.667h-1.067v1.067H17.6V2.667zM16.533 21.333h-1.067V22.4h1.067v-1.067zM8.91 3.577l-.754-.754L7.089 3.89a.534.534 0 0 0 0 .754l1.067 1.067.754-.754-.69-.69.69-.69zM13.177 3.89 12.11 2.823l-.754.754.69.69-.69.69.754.754 1.067-1.067a.534.534 0 0 0 0-.754zM10.161 2.497l-1.068 3.2 1.011.337 1.068-3.2-1.011-.337zM27.733 16.533v-4.267h-1.067v4.267h-1.067V11.2h-1.067v5.333h-1.067v-2.667h-1.067v2.667h-1.067v-3.2h-1.067v3.2h-1.067V14.4H18.13v2.133h-1.067V17.6h11.733v-1.067h-1.067z"/><path d="M28.267 0H3.734a3.203 3.203 0 0 0-3.2 3.2v18.133a3.203 3.203 0 0 0 3.2 3.2h6.604L8.205 28.8h-2.87a1.6 1.6 0 1 0 0 3.2h21.333a1.6 1.6 0 1 0 0-3.2h-2.87l-2.133-4.267h6.604a3.203 3.203 0 0 0 3.2-3.2V3.2a3.203 3.203 0 0 0-3.2-3.2zM1.6 7.504l1.212 1.443c.101.121.251.19.409.19h1.633c.158 0 .307-.07.409-.19l1.213-1.443 1.197.389.132 1.879a.535.535 0 0 0 .218.394l1.321.96c.128.092.29.124.443.086l1.831-.455.74 1.018-.998 1.6a.53.53 0 0 0-.052.447l.505 1.553c.049.15.161.27.307.33l1.748.709v1.259l-1.749.709a.531.531 0 0 0-.307.33l-.16.489H8.579a5.022 5.022 0 0 0-6.978-6.549V7.505zm0 6.416a3.961 3.961 0 0 1 5.76 5.28H1.6v-5.28zm25.067 15.947a.533.533 0 1 1 0 1.066H5.334a.533.533 0 1 1 0-1.066h21.333zM22.604 28.8H9.397l2.133-4.267h8.941l2.133 4.267zm7.796-7.467a2.133 2.133 0 0 1-2.133 2.133H3.734a2.133 2.133 0 0 1-2.133-2.133v-1.067h28.8v1.067zm0-2.133H12.936l1.665-.675a.534.534 0 0 0 .333-.494v-1.978a.533.533 0 0 0-.333-.494l-1.854-.75-.351-1.08 1.057-1.696a.533.533 0 0 0-.021-.595l-1.163-1.6a.532.532 0 0 0-.56-.204l-1.939.48-.916-.666-.14-1.989a.534.534 0 0 0-.367-.47l-1.88-.611a.536.536 0 0 0-.573.165L4.61 8.071H3.472L2.188 6.543a.538.538 0 0 0-.574-.165l-.013.005V3.201c0-1.178.955-2.133 2.133-2.133h24.533c1.178 0 2.133.955 2.133 2.133v16z"/></symbol><symbol id="icon-univer" viewBox="0 0 27 32"><path d="m22.678 20.906-1.878-.551-4.086-2.669v-.612a5.437 5.437 0 0 0 2.146-3.82 1.249 1.249 0 0 0 1.048-1.231v-1.682l-.001-.019v-2.13a.924.924 0 0 0 .386-.754V5.489l2.82-.48c.463-.079.797-.447.829-.916s-.246-.88-.694-1.022L13.742.047a.995.995 0 0 0-.606 0L3.63 3.071a.984.984 0 0 0-.694 1.022.987.987 0 0 0 .383.723v2.549h-.023a.973.973 0 0 0-.971.971v1.265l-.627 3.678a1.044 1.044 0 0 0 1.029 1.218h2.122c.645 0 1.137-.581 1.029-1.219L5.251 9.6V8.335a.973.973 0 0 0-.971-.971h-.023V5.091l2.331.397v1.949c0 .308.149.583.385.753l.001 2.151v1.681c0 .62.455 1.135 1.048 1.231a5.436 5.436 0 0 0 2.144 3.818v.614l-4.085 2.668-1.877.551A4.766 4.766 0 0 0 .778 25.48v1.397a.469.469 0 0 0 .938 0V25.48a3.854 3.854 0 0 1 2.752-3.677l1.748-.513 6.985 4.151a.474.474 0 0 0 .479 0l6.986-4.151 1.748.513a3.853 3.853 0 0 1 2.752 3.676v4.527c0 .581-.472 1.053-1.053 1.053h-2.066v-2.02a.469.469 0 0 0-.938 0v2.02H5.768v-2.02a.469.469 0 0 0-.938 0v2.02H2.766a1.054 1.054 0 0 1-1.053-1.053v-.939a.469.469 0 0 0-.938 0v.939c0 1.098.893 1.991 1.991 1.991h21.345a1.993 1.993 0 0 0 1.991-1.991v-4.527a4.767 4.767 0 0 0-3.426-4.576zm-17.83-7.345H2.726a.105.105 0 0 1-.104-.124l.567-3.327h1.197l.567 3.327a.106.106 0 0 1-.104.124zm-.536-5.225v.836H3.261v-.836c0-.018.015-.033.033-.033h.984c.019 0 .033.015.033.033zm7.452 14.987.187.287-4.786-2.844 3.038-1.984a9.86 9.86 0 0 0 1.561 4.541zM11.76 21.3c1.103.157 2.255.157 3.359 0a8.914 8.914 0 0 1-.789 1.512l-.891 1.369-.891-1.369a8.914 8.914 0 0 1-.789-1.512zm3.356 2.023a9.837 9.837 0 0 0 1.561-4.541l3.038 1.984-4.785 2.844.187-.287zm2.742-14.956h1.111v1.506h-.551a.56.56 0 0 1-.56-.56v-.947zM3.914 3.964 13.42.94a.062.062 0 0 1 .038 0l9.506 3.024c.02.006.046.015.043.064s-.031.053-.052.057l-3.143.535-1.18-.146a.47.47 0 0 0-.115.931l.838.104v1.922H7.523V5.51l4.85-.6a8.716 8.716 0 0 1 2.129 0l1.836.227a.47.47 0 0 0 .115-.931l-1.836-.227a9.598 9.598 0 0 0-2.359 0l-5.193.643-3.144-.535c-.02-.003-.048-.008-.052-.057s.024-.057.043-.064zm3.995 5.91-.001-1.506h1.113v.947a.56.56 0 0 1-.56.56h-.553zm1.032 3.14a.726.726 0 0 0-.722-.681.31.31 0 0 1-.309-.309v-1.213h.552a1.5 1.5 0 0 0 1.497-1.497v-.947h6.962v.947a1.5 1.5 0 0 0 1.497 1.497h.552v1.213a.31.31 0 0 1-.309.309.726.726 0 0 0-.722.681c-.149 2.367-2.125 4.221-4.499 4.221s-4.349-1.854-4.499-4.221zm4.499 5.158c.834 0 1.626-.191 2.336-.53v.297c0 .801-.108 1.592-.316 2.354a11.06 11.06 0 0 1-4.04 0 8.937 8.937 0 0 1-.318-2.383v-.269a5.42 5.42 0 0 0 2.338.53z"/></symbol><symbol id="icon-gtb" viewBox="0 0 34 32"><path d="M16.842 0C7.537 0 0 7.346 0 16.406c0 7.25 4.825 13.398 11.516 15.566.842.154 1.151-.353 1.151-.789 0-.39-.014-1.422-.021-2.79-4.685.989-5.673-2.201-5.673-2.201-.766-1.894-1.874-2.4-1.874-2.4-1.526-1.017.118-.996.118-.996 1.691.114 2.58 1.69 2.58 1.69 1.502 2.508 3.942 1.784 4.905 1.365.152-1.062.585-1.784 1.067-2.194-3.74-.41-7.672-1.821-7.672-8.107 0-1.791.653-3.254 1.733-4.402-.189-.415-.758-2.083.147-4.342 0 0 1.411-.44 4.632 1.682a16.63 16.63 0 0 1 4.211-.554c1.432.008 2.863.189 4.211.554 3.2-2.122 4.611-1.682 4.611-1.682.905 2.259.337 3.928.168 4.342 1.074 1.148 1.726 2.611 1.726 4.402 0 6.303-3.937 7.69-7.684 8.093.589.492 1.137 1.498 1.137 3.036 0 2.196-.021 3.96-.021 4.492 0 .43.295.943 1.158.779 6.738-2.154 11.559-8.306 11.559-15.545 0-9.06-7.541-16.406-16.842-16.406z"/></symbol><symbol id="icon-inst" viewBox="0 0 32 32"><path d="M21.999 0h-12c-5.522 0-10 4.478-10 10v12c0 5.522 4.478 10 10 10h12c5.522 0 10-4.478 10-10V10c0-5.522-4.478-10-10-10zm7 22c0 3.86-3.14 7-7 7h-12c-3.86 0-7-3.14-7-7V10c0-3.86 3.14-7 7-7h12c3.86 0 7 3.14 7 7v12z"/><path d="M15.999 8a8 8 0 1 0 0 16 8 8 0 0 0 0-16zm0 13c-2.756 0-5-2.244-5-5 0-2.758 2.244-5 5-5s5 2.242 5 5c0 2.756-2.244 5-5 5zM24.599 8.466a1.066 1.066 0 1 0 0-2.131 1.066 1.066 0 0 0 0 2.131z"/></symbol><symbol id="icon-fk" viewBox="0 0 32 32"><path d="M27.312 0H4.687A4.694 4.694 0 0 0-.001 4.688v22.625a4.694 4.694 0 0 0 4.688 4.688h9.438V20.689h-3.75v-5.625h3.75v-3.813a5.63 5.63 0 0 1 5.625-5.625h5.687v5.625H19.75v3.813h5.687l-.937 5.625h-4.75v11.312h7.562A4.694 4.694 0 0 0 32 27.313V4.688A4.694 4.694 0 0 0 27.312 0z"/></symbol><symbol id="icon-tg" viewBox="0 0 32 32"><path d="M16 32c8.839 0 16-7.161 16-16S24.839 0 16 0 0 7.161 0 16s7.161 16 16 16zM7.321 15.653l15.427-5.948c.716-.259 1.341.175 1.109 1.257l.001-.001-2.627 12.375c-.195.877-.716 1.091-1.445.677l-4-2.948-1.929 1.859c-.213.213-.393.393-.807.393l.284-4.071 7.413-6.697c.323-.284-.072-.444-.497-.161l-9.161 5.768-3.949-1.232c-.857-.272-.876-.857.181-1.271z"/></symbol></defs></svg>